<mxfile host="app.diagrams.net" modified="2020-12-20T10:33:02.679Z" agent="5.0 (Windows NT 10.0; Win64; x64) AppleWebKit/537.36 (KHTML, like Gecko) Chrome/87.0.4280.88 Safari/537.36" etag="EA0882DwKYlwJtCITMWe" version="14.1.1" type="github">
  <diagram id="nnbTUbRkCqWMNNhiExVG" name="第 1 页">
    <mxGraphModel dx="1502" dy="675" grid="1" gridSize="10" guides="1" tooltips="1" connect="1" arrows="1" fold="1" page="1" pageScale="1" pageWidth="827" pageHeight="1169" math="0" shadow="0">
      <root>
        <mxCell id="0" />
        <mxCell id="1" parent="0" />
        <mxCell id="_EzliqTFEORfsLsRU7bn-2" value="" style="rounded=0;whiteSpace=wrap;html=1;fillColor=#f8cecc;strokeColor=#b85450;" vertex="1" parent="1">
          <mxGeometry x="320" y="250" width="150" height="150" as="geometry" />
        </mxCell>
        <mxCell id="_EzliqTFEORfsLsRU7bn-7" style="edgeStyle=orthogonalEdgeStyle;rounded=0;orthogonalLoop=1;jettySize=auto;html=1;entryX=0;entryY=0.5;entryDx=0;entryDy=0;" edge="1" parent="1" source="_EzliqTFEORfsLsRU7bn-1" target="_EzliqTFEORfsLsRU7bn-4">
          <mxGeometry relative="1" as="geometry" />
        </mxCell>
        <mxCell id="_EzliqTFEORfsLsRU7bn-1" value="生产者" style="rounded=0;whiteSpace=wrap;html=1;fillColor=#ffe6cc;strokeColor=#d79b00;" vertex="1" parent="1">
          <mxGeometry x="110" y="270" width="120" height="60" as="geometry" />
        </mxCell>
        <mxCell id="_EzliqTFEORfsLsRU7bn-9" style="edgeStyle=orthogonalEdgeStyle;rounded=0;orthogonalLoop=1;jettySize=auto;html=1;entryX=0;entryY=0.5;entryDx=0;entryDy=0;" edge="1" parent="1" source="_EzliqTFEORfsLsRU7bn-4" target="_EzliqTFEORfsLsRU7bn-8">
          <mxGeometry relative="1" as="geometry" />
        </mxCell>
        <mxCell id="_EzliqTFEORfsLsRU7bn-4" value="&#xa;&#xa;&lt;span style=&quot;color: rgb(0, 0, 0); font-family: helvetica; font-size: 12px; font-style: normal; font-weight: 400; letter-spacing: normal; text-align: center; text-indent: 0px; text-transform: none; word-spacing: 0px; background-color: rgb(248, 249, 250); display: inline; float: none;&quot;&gt;queue&lt;/span&gt;&#xa;&#xa;" style="rounded=0;whiteSpace=wrap;html=1;" vertex="1" parent="1">
          <mxGeometry x="335" y="280" width="120" height="40" as="geometry" />
        </mxCell>
        <mxCell id="_EzliqTFEORfsLsRU7bn-5" value="Mq-server" style="text;html=1;strokeColor=none;fillColor=none;align=center;verticalAlign=middle;whiteSpace=wrap;rounded=0;" vertex="1" parent="1">
          <mxGeometry x="360" y="350" width="67.5" height="30" as="geometry" />
        </mxCell>
        <mxCell id="_EzliqTFEORfsLsRU7bn-13" style="edgeStyle=orthogonalEdgeStyle;rounded=0;orthogonalLoop=1;jettySize=auto;html=1;entryX=0;entryY=0.5;entryDx=0;entryDy=0;" edge="1" parent="1" source="_EzliqTFEORfsLsRU7bn-8" target="_EzliqTFEORfsLsRU7bn-10">
          <mxGeometry relative="1" as="geometry" />
        </mxCell>
        <mxCell id="_EzliqTFEORfsLsRU7bn-14" style="edgeStyle=orthogonalEdgeStyle;rounded=0;orthogonalLoop=1;jettySize=auto;html=1;entryX=0;entryY=0.5;entryDx=0;entryDy=0;" edge="1" parent="1" source="_EzliqTFEORfsLsRU7bn-8" target="_EzliqTFEORfsLsRU7bn-11">
          <mxGeometry relative="1" as="geometry" />
        </mxCell>
        <mxCell id="_EzliqTFEORfsLsRU7bn-15" style="edgeStyle=orthogonalEdgeStyle;rounded=0;orthogonalLoop=1;jettySize=auto;html=1;entryX=0;entryY=0.5;entryDx=0;entryDy=0;" edge="1" parent="1" source="_EzliqTFEORfsLsRU7bn-8" target="_EzliqTFEORfsLsRU7bn-12">
          <mxGeometry relative="1" as="geometry" />
        </mxCell>
        <mxCell id="_EzliqTFEORfsLsRU7bn-8" value="消费者" style="rounded=0;whiteSpace=wrap;html=1;fillColor=#e1d5e7;strokeColor=#9673a6;" vertex="1" parent="1">
          <mxGeometry x="560" y="270" width="120" height="60" as="geometry" />
        </mxCell>
        <mxCell id="_EzliqTFEORfsLsRU7bn-10" value="内存队列1" style="rounded=0;whiteSpace=wrap;html=1;" vertex="1" parent="1">
          <mxGeometry x="790" y="160" width="120" height="60" as="geometry" />
        </mxCell>
        <mxCell id="_EzliqTFEORfsLsRU7bn-11" value="内存队列2" style="rounded=0;whiteSpace=wrap;html=1;" vertex="1" parent="1">
          <mxGeometry x="790" y="270" width="120" height="60" as="geometry" />
        </mxCell>
        <mxCell id="_EzliqTFEORfsLsRU7bn-12" value="内存队列3" style="rounded=0;whiteSpace=wrap;html=1;" vertex="1" parent="1">
          <mxGeometry x="790" y="380" width="120" height="60" as="geometry" />
        </mxCell>
        <mxCell id="_EzliqTFEORfsLsRU7bn-16" value="消费者拉消息后，更加id计算出一个hash值，然后把相同id的商品压倒一个内存队列中，让同一个线程去处理" style="text;html=1;strokeColor=none;fillColor=none;align=center;verticalAlign=middle;whiteSpace=wrap;rounded=0;" vertex="1" parent="1">
          <mxGeometry x="515" y="160" width="210" height="110" as="geometry" />
        </mxCell>
        <mxCell id="_EzliqTFEORfsLsRU7bn-17" value="thread1" style="rounded=0;whiteSpace=wrap;html=1;" vertex="1" parent="1">
          <mxGeometry x="980" y="160" width="120" height="60" as="geometry" />
        </mxCell>
        <mxCell id="_EzliqTFEORfsLsRU7bn-18" value="thread2" style="rounded=0;whiteSpace=wrap;html=1;" vertex="1" parent="1">
          <mxGeometry x="980" y="270" width="120" height="60" as="geometry" />
        </mxCell>
        <mxCell id="_EzliqTFEORfsLsRU7bn-19" value="thread3" style="rounded=0;whiteSpace=wrap;html=1;" vertex="1" parent="1">
          <mxGeometry x="980" y="380" width="120" height="60" as="geometry" />
        </mxCell>
      </root>
    </mxGraphModel>
  </diagram>
</mxfile>
